<mxfile host="app.diagrams.net" modified="2023-12-06T12:48:18.127Z" agent="Mozilla/5.0 (Macintosh; Intel Mac OS X 10_15_7) AppleWebKit/537.36 (KHTML, like Gecko) Chrome/117.0.0.0 Safari/537.36" version="22.1.5" etag="Ls9PClRTDCrkHrH_TtFy" type="github">
  <diagram name="Page-1" id="8RIJGSHO7NisM8CZwKHq">
    <mxGraphModel>
      <root>
        <mxCell id="0" />
        <mxCell id="1" parent="0" />
      </root>
    </mxGraphModel>
  </diagram>
</mxfile>
